<?xml version="1.0" encoding="utf-8"?>
<svg xmlns="http://www.w3.org/2000/svg">
  <defs>
    <symbol id="openFolder" viewBox="0 0 24 24">
        <path d="M2.106,6.677l-0.112,14.224l17.254,-0.128l0.223,-17.674l-7.372,-0l-0,3.45l-9.993,0.128Z" style="fill:none;stroke:#000;stroke-width:1px;"/><path d="M19.409,6.652l3.354,0l-3.515,14.121" style="fill:none;stroke:#000;stroke-width:1px;"/>
    </symbol>
    <symbol id="openFolderColor" viewBox="0 0 24 24">
        <path d="M2.106,6.677l-0.112,14.224l17.254,-0.128l0.223,-17.674l-7.372,-0l-0,3.45l-9.993,0.128Z" style="fill:#E5A91A;stroke:#000;stroke-width:1px;"/><path d="M19.409,6.652l3.354,0l-3.515,14.121" style="fill:725500;stroke:#000;stroke-width:1px;"/>
    </symbol>
    <symbol id="star" viewBox="0 0 24 24">
        <path d="M14.693,4.512l4.582,3.33l-2.291,3.153l3.707,1.205l-1.75,5.387l-3.707,-1.204l-0,3.898l-5.665,0l-0,-3.898l-3.708,1.204l-1.75,-5.387l3.707,-1.205l-2.291,-3.153l4.583,-3.33l2.291,3.154l2.292,-3.154Z" style="fill:var(--icon-fill-color);stroke:var(--icon-stroke-color);stroke-width:1px;"/>
    </symbol>
    <symbol id="cog" viewBox="0 0 24 24">
        <path d="M13.68,3.14l0.283,1.381c0.549,0.084 1.087,0.228 1.604,0.43l0.936,-1.054c0.524,0.238 1.023,0.526 1.491,0.861l-0.444,1.337c0.433,0.347 0.827,0.741 1.174,1.174l1.337,-0.444c0.335,0.468 0.623,0.967 0.861,1.491l-1.054,0.936c0.202,0.517 0.346,1.055 0.43,1.604l1.381,0.283c0.055,0.573 0.055,1.149 -0,1.722l-1.381,0.283c-0.084,0.549 -0.228,1.087 -0.43,1.604l1.054,0.936c-0.238,0.524 -0.526,1.023 -0.861,1.491l-1.337,-0.444c-0.347,0.433 -0.741,0.827 -1.174,1.174l0.444,1.337c-0.468,0.335 -0.967,0.623 -1.491,0.861l-0.936,-1.054c-0.517,0.202 -1.055,0.346 -1.604,0.43l-0.283,1.381c-0.573,0.055 -1.149,0.055 -1.722,-0l-0.283,-1.381c-0.549,-0.084 -1.087,-0.228 -1.604,-0.43l-0.936,1.054c-0.524,-0.238 -1.023,-0.526 -1.491,-0.861l0.444,-1.337c-0.433,-0.347 -0.827,-0.741 -1.174,-1.174l-1.337,0.444c-0.335,-0.468 -0.623,-0.967 -0.861,-1.491l1.054,-0.936c-0.202,-0.517 -0.346,-1.055 -0.43,-1.604l-1.381,-0.283c-0.055,-0.573 -0.055,-1.149 0,-1.722l1.381,-0.283c0.084,-0.549 0.228,-1.087 0.43,-1.604l-1.054,-0.936c0.238,-0.524 0.526,-1.023 0.861,-1.491l1.337,0.444c0.347,-0.433 0.741,-0.827 1.174,-1.174l-0.444,-1.337c0.468,-0.335 0.967,-0.623 1.491,-0.861l0.936,1.054c0.517,-0.202 1.055,-0.346 1.604,-0.43l0.283,-1.381c0.573,-0.055 1.149,-0.055 1.722,0Zm-0.861,7.08c0.983,-0 1.78,0.797 1.78,1.78c0,0.983 -0.797,1.78 -1.78,1.78c-0.983,0 -1.78,-0.797 -1.78,-1.78c-0,-0.983 0.797,-1.78 1.78,-1.78Z" style="fill:none;stroke:#000;stroke-width:1px;"/>
    </symbol>
    <symbol id="bike" viewBox="0 0 24 24">
        <path d="M22.167,14.589c0,1.148 -0.405,2.128 -1.215,2.938c-0.81,0.81 -1.785,1.215 -2.925,1.215c-1.148,0 -2.128,-0.405 -2.938,-1.215c-0.81,-0.81 -1.215,-1.79 -1.215,-2.938c-0,-0.828 0.224,-1.581 0.674,-2.257c0.45,-0.677 1.04,-1.18 1.77,-1.509l-0.321,-0.828l-4.541,5.435l-1.202,-0.12c-0.169,0.979 -0.639,1.796 -1.409,2.451c-0.77,0.654 -1.663,0.981 -2.678,0.981c-1.139,0 -2.114,-0.405 -2.924,-1.215c-0.811,-0.81 -1.216,-1.79 -1.216,-2.938c0,-1.14 0.405,-2.115 1.216,-2.925c0.81,-0.81 1.789,-1.215 2.938,-1.215c0.561,-0 1.095,0.107 1.602,0.32l1.002,-2.217l-0.361,-1.015l0.067,-0.027l-0.253,-0.747c-0.294,-0 -0.535,-0.027 -0.722,-0.081c-0.311,-0.08 -0.467,-0.222 -0.467,-0.427c-0,-0.383 0.133,-0.574 0.401,-0.574c0.142,-0 0.342,0.033 0.601,0.1c0.258,0.067 0.44,0.1 0.547,0.1c0.125,0 0.289,-0.013 0.494,-0.04c0.205,-0.027 0.334,-0.04 0.388,-0.04c0.151,-0 0.227,0.098 0.227,0.294c-0,0.062 -0.147,0.173 -0.441,0.334c-0.294,0.16 -0.539,0.262 -0.735,0.307l0.254,0.681l0.054,-0.04l0.267,0.734l6.223,0l-0.521,-1.429l0,-0.467l2.404,-0l0,0.467l-1.949,0l1.442,3.98c0.427,-0.142 0.868,-0.213 1.322,-0.213c1.149,-0 2.126,0.403 2.932,1.208c0.805,0.806 1.208,1.783 1.208,2.932Zm-0.454,-0c0,-1.015 -0.36,-1.883 -1.082,-2.604c-0.721,-0.722 -1.589,-1.082 -2.604,-1.082c-0.383,-0 -0.775,0.067 -1.175,0.2c0.436,1.22 0.788,2.173 1.055,2.858l0.307,0.761c0,0.107 -0.058,0.161 -0.174,0.161c-0.133,-0 -0.293,-0.25 -0.48,-0.748l-1.082,-2.885c-1.425,0.659 -2.137,1.772 -2.137,3.339c-0,1.015 0.361,1.883 1.082,2.604c0.721,0.721 1.589,1.082 2.604,1.082c1.015,0 1.883,-0.361 2.604,-1.082c0.722,-0.721 1.082,-1.589 1.082,-2.604Zm-5.863,-5.062l-0.36,-0.975l-6.211,0l2.244,6.144l4.327,-5.169Zm-4.728,5.396l-2.123,-5.783l-0.815,1.83c1.425,0.792 2.137,1.998 2.137,3.619l-0,0.267l0.801,0.067Zm-1.268,-0.12l-0,-0.214c-0,-1.425 -0.624,-2.493 -1.87,-3.205l-1.389,3.111l3.259,0.308Zm-0.054,0.467l-3.9,-0.361l1.696,-3.712c-0.471,-0.196 -0.943,-0.294 -1.415,-0.294c-1.015,-0 -1.883,0.36 -2.605,1.082c-0.721,0.721 -1.081,1.589 -1.081,2.604c-0,1.015 0.358,1.883 1.075,2.604c0.717,0.721 1.582,1.082 2.597,1.082c0.9,0 1.69,-0.285 2.371,-0.855c0.681,-0.57 1.102,-1.286 1.262,-2.15Z" style="fill-rule:nonzero;stroke:#000;stroke-width:1px;"/>
    </symbol>
  </defs>
</svg>